<?xml version="1.0" encoding="UTF-8"?>
<svg xmlns="http://www.w3.org/2000/svg" xmlns:xlink="http://www.w3.org/1999/xlink" style="background: rgb(189, 6, 0); display: block; position: relative; shape-rendering: auto;" width="364" height="364" preserveAspectRatio="xMidYMid" viewBox="0 0 364 364"><g transform="scale(1.42)"><defs>
  <filter id="pat-0.9188710985203182" x="-100%" y="-100%" width="300%" height="300%" color-interpolation-filters="sRGB">
    <feGaussianBlur in="SourceGraphic" stdDeviation="10"/>
    <feComponentTransfer result="cutoff">
      <feFuncA type="linear" slope="60" intercept="-40"/>
    </feComponentTransfer>
  </filter>
</defs><g style="isolation:isolate" filter="url(#pat-0.9188710985203182)"><g transform="translate(0 -125.415)">
  <circle cx="-82.41535369326303" cy="138.30799078598557" r="26.671454308944604" fill="#ff8e3a"/> <circle cx="173.58464630673697" cy="138.30799078598557" r="26.671454308944604" fill="#ff8e3a"/> <circle cx="429.584646306737" cy="138.30799078598557" r="26.671454308944604" fill="#ff8e3a"/> <circle cx="-82.41535369326303" cy="394.30799078598557" r="26.671454308944604" fill="#ff8e3a"/> <circle cx="173.58464630673697" cy="394.30799078598557" r="26.671454308944604" fill="#ff8e3a"/> <circle cx="429.584646306737" cy="394.30799078598557" r="26.671454308944604" fill="#ff8e3a"/> <circle cx="-82.41535369326303" cy="650.3079907859856" r="26.671454308944604" fill="#ff8e3a"/> <circle cx="173.58464630673697" cy="650.3079907859856" r="26.671454308944604" fill="#ff8e3a"/> <circle cx="429.584646306737" cy="650.3079907859856" r="26.671454308944604" fill="#ff8e3a"/> <circle cx="-95.55704170298173" cy="39.74335392773925" r="29.249842946542707" fill="#ff8e3a"/> <circle cx="160.44295829701827" cy="39.74335392773925" r="29.249842946542707" fill="#ff8e3a"/> <circle cx="416.44295829701827" cy="39.74335392773925" r="29.249842946542707" fill="#ff8e3a"/> <circle cx="-95.55704170298173" cy="295.74335392773924" r="29.249842946542707" fill="#ff8e3a"/> <circle cx="160.44295829701827" cy="295.74335392773924" r="29.249842946542707" fill="#ff8e3a"/> <circle cx="416.44295829701827" cy="295.74335392773924" r="29.249842946542707" fill="#ff8e3a"/> <circle cx="-95.55704170298173" cy="551.7433539277392" r="29.249842946542707" fill="#ff8e3a"/> <circle cx="160.44295829701827" cy="551.7433539277392" r="29.249842946542707" fill="#ff8e3a"/> <circle cx="416.44295829701827" cy="551.7433539277392" r="29.249842946542707" fill="#ff8e3a"/> <circle cx="-217.29020311665687" cy="200.34820329130724" r="17.150594743644977" fill="#ff8e3a"/> <circle cx="38.709796883343124" cy="200.34820329130724" r="17.150594743644977" fill="#ff8e3a"/> <circle cx="294.70979688334313" cy="200.34820329130724" r="17.150594743644977" fill="#ff8e3a"/> <circle cx="-217.29020311665687" cy="456.34820329130724" r="17.150594743644977" fill="#ff8e3a"/> <circle cx="38.709796883343124" cy="456.34820329130724" r="17.150594743644977" fill="#ff8e3a"/> <circle cx="294.70979688334313" cy="456.34820329130724" r="17.150594743644977" fill="#ff8e3a"/> <circle cx="-217.29020311665687" cy="712.3482032913073" r="17.150594743644977" fill="#ff8e3a"/> <circle cx="38.709796883343124" cy="712.3482032913073" r="17.150594743644977" fill="#ff8e3a"/> <circle cx="294.70979688334313" cy="712.3482032913073" r="17.150594743644977" fill="#ff8e3a"/> <circle cx="-7.679755505065202" cy="-9.6496760447273" r="18.2501416118848" fill="#ff8e3a"/> <circle cx="248.3202444949348" cy="-9.6496760447273" r="18.2501416118848" fill="#ff8e3a"/> <circle cx="504.3202444949348" cy="-9.6496760447273" r="18.2501416118848" fill="#ff8e3a"/> <circle cx="-7.679755505065202" cy="246.3503239552727" r="18.2501416118848" fill="#ff8e3a"/> <circle cx="248.3202444949348" cy="246.3503239552727" r="18.2501416118848" fill="#ff8e3a"/> <circle cx="504.3202444949348" cy="246.3503239552727" r="18.2501416118848" fill="#ff8e3a"/> <circle cx="-7.679755505065202" cy="502.3503239552727" r="18.2501416118848" fill="#ff8e3a"/> <circle cx="248.3202444949348" cy="502.3503239552727" r="18.2501416118848" fill="#ff8e3a"/> <circle cx="504.3202444949348" cy="502.3503239552727" r="18.2501416118848" fill="#ff8e3a"/> <circle cx="-7.679755505065202" cy="758.3503239552726" r="18.2501416118848" fill="#ff8e3a"/> <circle cx="248.3202444949348" cy="758.3503239552726" r="18.2501416118848" fill="#ff8e3a"/> <circle cx="504.3202444949348" cy="758.3503239552726" r="18.2501416118848" fill="#ff8e3a"/> <circle cx="-176.43564317724432" cy="69.97779029690692" r="27.817386679752943" fill="#ff8e3a"/> <circle cx="79.56435682275568" cy="69.97779029690692" r="27.817386679752943" fill="#ff8e3a"/> <circle cx="335.5643568227557" cy="69.97779029690692" r="27.817386679752943" fill="#ff8e3a"/> <circle cx="-176.43564317724432" cy="325.9777902969069" r="27.817386679752943" fill="#ff8e3a"/> <circle cx="79.56435682275568" cy="325.9777902969069" r="27.817386679752943" fill="#ff8e3a"/> <circle cx="335.5643568227557" cy="325.9777902969069" r="27.817386679752943" fill="#ff8e3a"/> <circle cx="-176.43564317724432" cy="581.977790296907" r="27.817386679752943" fill="#ff8e3a"/> <circle cx="79.56435682275568" cy="581.977790296907" r="27.817386679752943" fill="#ff8e3a"/> <circle cx="335.5643568227557" cy="581.977790296907" r="27.817386679752943" fill="#ff8e3a"/> 
  <animateTransform attributeName="transform" type="translate" dur="3.3333333333333335s" repeatCount="indefinite" keyTimes="0;1" values="0 0;0 -256"/>
</g><g transform="translate(0 -250.829)">
  <circle cx="-239.41697045971142" cy="-7.25148851264359" r="28.86683942087317" fill="#f9af76"/> <circle cx="16.58302954028859" cy="-7.25148851264359" r="28.86683942087317" fill="#f9af76"/> <circle cx="272.5830295402886" cy="-7.25148851264359" r="28.86683942087317" fill="#f9af76"/> <circle cx="-239.41697045971142" cy="248.7485114873564" r="28.86683942087317" fill="#f9af76"/> <circle cx="16.58302954028859" cy="248.7485114873564" r="28.86683942087317" fill="#f9af76"/> <circle cx="272.5830295402886" cy="248.7485114873564" r="28.86683942087317" fill="#f9af76"/> <circle cx="-239.41697045971142" cy="504.7485114873564" r="28.86683942087317" fill="#f9af76"/> <circle cx="16.58302954028859" cy="504.7485114873564" r="28.86683942087317" fill="#f9af76"/> <circle cx="272.5830295402886" cy="504.7485114873564" r="28.86683942087317" fill="#f9af76"/> <circle cx="-239.41697045971142" cy="760.7485114873564" r="28.86683942087317" fill="#f9af76"/> <circle cx="16.58302954028859" cy="760.7485114873564" r="28.86683942087317" fill="#f9af76"/> <circle cx="272.5830295402886" cy="760.7485114873564" r="28.86683942087317" fill="#f9af76"/> <circle cx="-39.69993839805696" cy="3.8702813228239643" r="27.480668707946474" fill="#f9af76"/> <circle cx="216.30006160194304" cy="3.8702813228239643" r="27.480668707946474" fill="#f9af76"/> <circle cx="472.30006160194307" cy="3.8702813228239643" r="27.480668707946474" fill="#f9af76"/> <circle cx="-39.69993839805696" cy="259.870281322824" r="27.480668707946474" fill="#f9af76"/> <circle cx="216.30006160194304" cy="259.870281322824" r="27.480668707946474" fill="#f9af76"/> <circle cx="472.30006160194307" cy="259.870281322824" r="27.480668707946474" fill="#f9af76"/> <circle cx="-39.69993839805696" cy="515.870281322824" r="27.480668707946474" fill="#f9af76"/> <circle cx="216.30006160194304" cy="515.870281322824" r="27.480668707946474" fill="#f9af76"/> <circle cx="472.30006160194307" cy="515.870281322824" r="27.480668707946474" fill="#f9af76"/> <circle cx="-207.51449708528685" cy="143.7131830356809" r="25.411807101675002" fill="#f9af76"/> <circle cx="48.485502914713166" cy="143.7131830356809" r="25.411807101675002" fill="#f9af76"/> <circle cx="304.48550291471315" cy="143.7131830356809" r="25.411807101675002" fill="#f9af76"/> <circle cx="-207.51449708528685" cy="399.7131830356809" r="25.411807101675002" fill="#f9af76"/> <circle cx="48.485502914713166" cy="399.7131830356809" r="25.411807101675002" fill="#f9af76"/> <circle cx="304.48550291471315" cy="399.7131830356809" r="25.411807101675002" fill="#f9af76"/> <circle cx="-207.51449708528685" cy="655.7131830356809" r="25.411807101675002" fill="#f9af76"/> <circle cx="48.485502914713166" cy="655.7131830356809" r="25.411807101675002" fill="#f9af76"/> <circle cx="304.48550291471315" cy="655.7131830356809" r="25.411807101675002" fill="#f9af76"/> <circle cx="-114.45803662950138" cy="171.12633851124932" r="21.07044050504039" fill="#f9af76"/> <circle cx="141.54196337049862" cy="171.12633851124932" r="21.07044050504039" fill="#f9af76"/> <circle cx="397.5419633704986" cy="171.12633851124932" r="21.07044050504039" fill="#f9af76"/> <circle cx="-114.45803662950138" cy="427.1263385112493" r="21.07044050504039" fill="#f9af76"/> <circle cx="141.54196337049862" cy="427.1263385112493" r="21.07044050504039" fill="#f9af76"/> <circle cx="397.5419633704986" cy="427.1263385112493" r="21.07044050504039" fill="#f9af76"/> <circle cx="-114.45803662950138" cy="683.1263385112493" r="21.07044050504039" fill="#f9af76"/> <circle cx="141.54196337049862" cy="683.1263385112493" r="21.07044050504039" fill="#f9af76"/> <circle cx="397.5419633704986" cy="683.1263385112493" r="21.07044050504039" fill="#f9af76"/> <circle cx="-92.55826810876349" cy="210.51608021711306" r="23.788398228007072" fill="#f9af76"/> <circle cx="163.44173189123651" cy="210.51608021711306" r="23.788398228007072" fill="#f9af76"/> <circle cx="419.4417318912365" cy="210.51608021711306" r="23.788398228007072" fill="#f9af76"/> <circle cx="-92.55826810876349" cy="466.5160802171131" r="23.788398228007072" fill="#f9af76"/> <circle cx="163.44173189123651" cy="466.5160802171131" r="23.788398228007072" fill="#f9af76"/> <circle cx="419.4417318912365" cy="466.5160802171131" r="23.788398228007072" fill="#f9af76"/> <circle cx="-92.55826810876349" cy="722.5160802171131" r="23.788398228007072" fill="#f9af76"/> <circle cx="163.44173189123651" cy="722.5160802171131" r="23.788398228007072" fill="#f9af76"/> <circle cx="419.4417318912365" cy="722.5160802171131" r="23.788398228007072" fill="#f9af76"/> 
  <animateTransform attributeName="transform" type="translate" dur="1.6666666666666667s" repeatCount="indefinite" keyTimes="0;1" values="0 0;0 -256"/>
</g><g transform="translate(0 -120.244)">
  <circle cx="-143.91787002165773" cy="19.120716392932493" r="25.576003460959328" fill="#ff6c00"/> <circle cx="112.08212997834227" cy="19.120716392932493" r="25.576003460959328" fill="#ff6c00"/> <circle cx="368.08212997834227" cy="19.120716392932493" r="25.576003460959328" fill="#ff6c00"/> <circle cx="-143.91787002165773" cy="275.1207163929325" r="25.576003460959328" fill="#ff6c00"/> <circle cx="112.08212997834227" cy="275.1207163929325" r="25.576003460959328" fill="#ff6c00"/> <circle cx="368.08212997834227" cy="275.1207163929325" r="25.576003460959328" fill="#ff6c00"/> <circle cx="-143.91787002165773" cy="531.1207163929325" r="25.576003460959328" fill="#ff6c00"/> <circle cx="112.08212997834227" cy="531.1207163929325" r="25.576003460959328" fill="#ff6c00"/> <circle cx="368.08212997834227" cy="531.1207163929325" r="25.576003460959328" fill="#ff6c00"/> <circle cx="-80.06946846508887" cy="-22.770626217579462" r="24.466184799058524" fill="#ff6c00"/> <circle cx="175.93053153491113" cy="-22.770626217579462" r="24.466184799058524" fill="#ff6c00"/> <circle cx="431.9305315349111" cy="-22.770626217579462" r="24.466184799058524" fill="#ff6c00"/> <circle cx="-80.06946846508887" cy="233.22937378242054" r="24.466184799058524" fill="#ff6c00"/> <circle cx="175.93053153491113" cy="233.22937378242054" r="24.466184799058524" fill="#ff6c00"/> <circle cx="431.9305315349111" cy="233.22937378242054" r="24.466184799058524" fill="#ff6c00"/> <circle cx="-80.06946846508887" cy="489.22937378242057" r="24.466184799058524" fill="#ff6c00"/> <circle cx="175.93053153491113" cy="489.22937378242057" r="24.466184799058524" fill="#ff6c00"/> <circle cx="431.9305315349111" cy="489.22937378242057" r="24.466184799058524" fill="#ff6c00"/> <circle cx="-80.06946846508887" cy="745.2293737824206" r="24.466184799058524" fill="#ff6c00"/> <circle cx="175.93053153491113" cy="745.2293737824206" r="24.466184799058524" fill="#ff6c00"/> <circle cx="431.9305315349111" cy="745.2293737824206" r="24.466184799058524" fill="#ff6c00"/> <circle cx="-125.44257005846018" cy="64.50270484307224" r="19.204388635995418" fill="#ff6c00"/> <circle cx="130.55742994153982" cy="64.50270484307224" r="19.204388635995418" fill="#ff6c00"/> <circle cx="386.5574299415398" cy="64.50270484307224" r="19.204388635995418" fill="#ff6c00"/> <circle cx="-125.44257005846018" cy="320.50270484307225" r="19.204388635995418" fill="#ff6c00"/> <circle cx="130.55742994153982" cy="320.50270484307225" r="19.204388635995418" fill="#ff6c00"/> <circle cx="386.5574299415398" cy="320.50270484307225" r="19.204388635995418" fill="#ff6c00"/> <circle cx="-125.44257005846018" cy="576.5027048430723" r="19.204388635995418" fill="#ff6c00"/> <circle cx="130.55742994153982" cy="576.5027048430723" r="19.204388635995418" fill="#ff6c00"/> <circle cx="386.5574299415398" cy="576.5027048430723" r="19.204388635995418" fill="#ff6c00"/> <circle cx="-14.421049071373488" cy="22.00072117427284" r="31.134864817315734" fill="#ff6c00"/> <circle cx="241.5789509286265" cy="22.00072117427284" r="31.134864817315734" fill="#ff6c00"/> <circle cx="497.5789509286265" cy="22.00072117427284" r="31.134864817315734" fill="#ff6c00"/> <circle cx="-14.421049071373488" cy="278.0007211742728" r="31.134864817315734" fill="#ff6c00"/> <circle cx="241.5789509286265" cy="278.0007211742728" r="31.134864817315734" fill="#ff6c00"/> <circle cx="497.5789509286265" cy="278.0007211742728" r="31.134864817315734" fill="#ff6c00"/> <circle cx="-14.421049071373488" cy="534.0007211742728" r="31.134864817315734" fill="#ff6c00"/> <circle cx="241.5789509286265" cy="534.0007211742728" r="31.134864817315734" fill="#ff6c00"/> <circle cx="497.5789509286265" cy="534.0007211742728" r="31.134864817315734" fill="#ff6c00"/> 
  <animateTransform attributeName="transform" type="translate" dur="1.1111111111111112s" repeatCount="indefinite" keyTimes="0;1" values="0 0;0 -256"/>
</g></g></g><style type="text/css">.lded {
  max-width: 100%
}
.lded .viewer {
  width:  1140px;
  max-width: 90%;
  margin: 0 auto;
  height: 322px;
}
.lded .panel, .lded .ctrl {
  max-width: 1024px;
  margin: auto
}
.lded .panel {
  margin: -35px auto 0;
}
.gallery {
  display: flex;
  flex-wrap: nowrap;
  justify-content: space-between;
}
.gallery .item {
  flex: 1 1 256px;
  border-radius: 3px;
  width: 256px;
  height: 128px;
  margin: 0 10px 20px;
  display: inline-block;
  box-shadow: 0 1px 3px rgba(0,0,0,.3);
  background-size: 128px;
}
.gallery .item .move {
  visibility: hidden;
  opacity: 0;
  transition: visibility 0.3s ease-in-out, opacity 03.s ease-in-out;
  width: 100%;
  height: 100%;
  background-size: 128px;
}
.gallery .item:hover .move {
  visibility: visible;
  opacity: 1;
}
.gallery.icon {
  justify-content: center;
}
.gallery.icon .item {
  flex:0 0 64px;
  border-radius: 3px;
  width: 64px;
  height: 64px;
  box-shadow: none;
  background-position: center center;
  background-repeat: no-repeat;
  background-size: cover;
  margin:0 5px 10px;
  background: #fff;
}
.lded.pro .download .label { display: none }
</style></svg>